<?xml version="1.0" encoding="utf-8"?>
<!-- Generator: Adobe Illustrator 25.2.1, SVG Export Plug-In . SVG Version: 6.00 Build 0)  -->
<svg version="1.1" id="Layer_1" xmlns="http://www.w3.org/2000/svg" xmlns:xlink="http://www.w3.org/1999/xlink" x="0px" y="0px"
	 viewBox="0 0 721.3 233.2" style="enable-background:new 0 0 721.3 233.2;" xml:space="preserve">
<style type="text/css">
	.st0{fill:none;}
	.st1{fill:#828BC5;}
	.st2{fill:url(#SVGID_1_);}
	.st3{fill:url(#SVGID_2_);}
	.st4{fill:#ABB2BF;}
</style>
<g id="Layer_2_1_">
	<g id="Layer_1-2">
		<path class="st0" d="M51.1,144.2L51.1,144.2L51.1,144.2z"/>
		<polygon class="st1" points="269,233.2 111.3,168.8 51.1,144.2 93.3,71.2 142.1,91.6 201.7,116.6 		"/>
		
			<linearGradient id="SVGID_1_" gradientUnits="userSpaceOnUse" x1="58.9108" y1="756.6439" x2="164.3325" y2="631.006" gradientTransform="matrix(1 0 0 1 0 -605.8898)">
			<stop  offset="0" style="stop-color:#65C4DA;stop-opacity:0"/>
			<stop  offset="4.000000e-02" style="stop-color:#53C1D9;stop-opacity:0.12"/>
			<stop  offset="0.1" style="stop-color:#3DBED8;stop-opacity:0.27"/>
			<stop  offset="0.16" style="stop-color:#2ABCD8;stop-opacity:0.4"/>
			<stop  offset="0.24" style="stop-color:#1ABAD7;stop-opacity:0.5"/>
			<stop  offset="0.32" style="stop-color:#0EB8D7;stop-opacity:0.58"/>
			<stop  offset="0.43" style="stop-color:#06B7D6;stop-opacity:0.63"/>
			<stop  offset="0.58" style="stop-color:#01B6D6;stop-opacity:0.67"/>
			<stop  offset="1" style="stop-color:#00B6D6;stop-opacity:0.67"/>
			<stop  offset="1" style="stop-color:#00B6D6;stop-opacity:0.68"/>
			<stop  offset="1" style="stop-color:#00B5D6;stop-opacity:0.72"/>
			<stop  offset="1" style="stop-color:#00B4D5;stop-opacity:0.77"/>
			<stop  offset="1" style="stop-color:#00B2D4;stop-opacity:0.86"/>
			<stop  offset="1" style="stop-color:#00B0D3;stop-opacity:0.96"/>
			<stop  offset="1" style="stop-color:#00AFD3"/>
		</linearGradient>
		<polygon class="st2" points="176,72 142.1,91.6 51.1,144.2 93.3,71.2 134.4,0 		"/>
		
			<linearGradient id="SVGID_2_" gradientUnits="userSpaceOnUse" x1="55.6108" y1="905.3669" x2="231.5085" y2="757.7773" gradientTransform="matrix(1 0 0 1 0 -605.8898)">
			<stop  offset="0" style="stop-color:#65C4DA"/>
			<stop  offset="0.38" style="stop-color:#65C4DA;stop-opacity:0.99"/>
			<stop  offset="0.52" style="stop-color:#65C4DA;stop-opacity:0.96"/>
			<stop  offset="0.62" style="stop-color:#65C4DA;stop-opacity:0.91"/>
			<stop  offset="0.7" style="stop-color:#64C4DA;stop-opacity:0.83"/>
			<stop  offset="0.77" style="stop-color:#64C4DA;stop-opacity:0.73"/>
			<stop  offset="0.83" style="stop-color:#63C4DA;stop-opacity:0.6"/>
			<stop  offset="0.89" style="stop-color:#63C3D9;stop-opacity:0.45"/>
			<stop  offset="0.94" style="stop-color:#62C3D9;stop-opacity:0.28"/>
			<stop  offset="0.98" style="stop-color:#61C3D9;stop-opacity:9.000000e-02"/>
			<stop  offset="1" style="stop-color:#61C3D9;stop-opacity:0"/>
		</linearGradient>
		<polygon class="st3" points="269.2,233.2 0,233.2 111.6,168.8 201.9,116.6 		"/>
		<circle class="st4" cx="604.9" cy="52.6" r="7.3"/>
		<path class="st4" d="M272,95.2c2.4-5.4,5.8-10.3,10-14.4s9.2-7.4,14.7-9.7c5.7-2.4,11.8-3.6,17.9-3.6s12.2,1.2,17.9,3.6
			c5.5,2.3,10.4,5.6,14.7,9.7c4.2,4.1,7.7,9,10.2,14.4c2.5,5.5,3.9,11.5,4,17.6h-12.1v0.2c-0.1-4.5-1.1-8.9-3.1-13
			c-3.7-8-10.3-14.3-18.4-17.7c-4.1-1.7-8.6-2.6-13.1-2.6c-9,0-17.6,3.5-24,9.7c-3.1,3-5.6,6.6-7.4,10.5c-1.9,4.1-3,8.4-3.2,12.9
			h-12.2C268.1,106.7,269.5,100.8,272,95.2z M349.3,145.9c-4.3,4.7-9.6,8.5-15.4,11.1c-11.8,5.2-25.2,5.4-37.1,0.5
			c-5.5-2.3-10.4-5.5-14.7-9.6c-8.7-8.5-13.7-20-14.1-32.1h12.2c0.2,4.5,1.3,8.8,3.2,12.9c1.8,3.9,4.3,7.5,7.4,10.5
			c13.4,12.9,34.5,13,48,0.2c3.1-3,5.7-6.6,7.5-10.6c1.9-4.1,3-8.5,3.2-13h12.2v82.6h-12.2L349.3,145.9z"/>
		<path class="st4" d="M382.4,95.2c2.4-5.4,5.8-10.3,10-14.4s9.2-7.4,14.6-9.7c5.7-2.4,11.8-3.6,18-3.6c6.1,0,12.2,1.2,17.9,3.6
			c5.5,2.3,10.4,5.6,14.7,9.7c4.3,4.1,7.7,9,10.2,14.4c2.5,5.5,3.9,11.5,4,17.6h-12.1v0.2c-0.1-4.5-1.2-8.9-3.1-13
			c-3.7-8-10.3-14.3-18.4-17.7c-8.4-3.5-17.8-3.5-26.2,0c-4,1.7-7.7,4.1-10.9,7.1c-3.1,3-5.6,6.5-7.5,10.5c-1.9,4.1-3,8.4-3.2,12.9
			h-12.2C378.5,106.7,379.8,100.8,382.4,95.2z M459.6,145.9c-4.3,4.7-9.6,8.5-15.4,11.1c-11.8,5.2-25.2,5.4-37.1,0.5
			c-5.5-2.3-10.4-5.5-14.7-9.6c-8.7-8.5-13.7-20-14.1-32.1h12.2c0.2,4.5,1.3,8.8,3.2,12.9c1.8,3.9,4.4,7.5,7.5,10.5
			c3.2,3,6.8,5.4,10.9,7.1c4.1,1.8,8.6,2.7,13.1,2.6c9,0,17.6-3.4,24.2-9.5c3.2-3,5.8-6.6,7.6-10.6c1.9-4.1,2.8-8.5,2.8-13h12.1V161
			h-12.2v-15.1H459.6z"/>
		<path class="st4" d="M582,112.8h-12.1c-0.1-4.5-1.2-8.9-3.1-12.9c-1.9-3.9-4.4-7.4-7.5-10.5c-3.1-3-6.8-5.4-10.8-7.1
			c-4.2-1.8-8.7-2.6-13.3-2.6c-4.5,0-8.9,0.9-13.1,2.6c-4,1.7-7.7,4.1-10.8,7.1c-6.4,6.1-10.2,14.5-10.7,23.4h-12.1
			c0.2-6.1,1.6-12,4.1-17.6c2.4-5.4,5.9-10.3,10.1-14.4s9.2-7.4,14.7-9.7c5.6-2.4,11.7-3.6,17.9-3.6s12.3,1.2,18,3.6
			c5.5,2.3,10.4,5.6,14.7,9.7c4.2,4.2,7.6,9,10,14.4C580.6,100.7,581.9,106.7,582,112.8z M500.7,198.4h-12.1v-82.6h12.1
			c0.2,4.5,1.3,8.9,3.2,13c1.8,4,4.3,7.5,7.5,10.6c6.4,6.2,15,9.6,23.9,9.5c4.6,0,9.1-0.9,13.3-2.6c4-1.7,7.6-4.1,10.8-7.1
			c3.1-3,5.6-6.6,7.5-10.5c1.9-4,3-8.4,3.1-12.9h12c-0.1,6.1-1.4,12.2-4,17.8c-2.5,5.4-5.9,10.2-10.1,14.3
			c-4.2,4.1-9.2,7.4-14.7,9.6c-11.9,4.9-25.3,4.7-37.1-0.5c-5.8-2.6-11.1-6.4-15.4-11.1L500.7,198.4z"/>
		<path class="st4" d="M598.9,67.7H611v45.1h-12.1V67.7z M598.9,115.8H611V161h-12.1V115.8z"/>
		<path class="st4" d="M632,95.2c2.4-5.4,5.8-10.3,10-14.4s9.2-7.4,14.7-9.7c5.7-2.4,11.8-3.6,18-3.6c6.1,0,12.2,1.2,17.9,3.6
			c11,4.7,19.9,13.3,24.9,24.1c2.6,5.5,3.9,11.5,4,17.6h-12.2v0.2c-0.1-4.5-1.2-8.9-3.1-13c-3.7-8-10.3-14.3-18.4-17.7
			c-4.1-1.7-8.6-2.6-13.1-2.6s-9,0.9-13.2,2.6c-4,1.7-7.7,4.1-10.8,7.1s-5.6,6.6-7.4,10.5c-1.9,4.1-3,8.4-3.2,12.9h-12.2
			C628.1,106.7,629.5,100.8,632,95.2z M627.9,115.8H640c0.2,4.5,1.3,8.8,3.2,12.9c1.8,3.9,4.3,7.5,7.4,10.5c3.1,3,6.8,5.5,10.8,7.1
			c4.2,1.7,8.7,2.6,13.2,2.6s8.9-0.9,13.1-2.6c8.1-3.4,14.7-9.7,18.4-17.7c1.9-4.1,3-8.5,3.1-13v0.2h12.2c-0.1,6.1-1.4,12.1-4,17.6
			c-5,10.9-13.9,19.5-24.9,24.1c-5.7,2.4-11.7,3.6-17.9,3.5c-6.2,0-12.3-1.2-18-3.6c-5.4-2.3-10.4-5.6-14.6-9.7
			c-4.2-4.1-7.6-9-10-14.4C629.5,127.8,628.1,121.9,627.9,115.8L627.9,115.8z"/>
	</g>
</g>
</svg>
